<svg width="55" height="55" viewBox="0 0 55 55" fill="none" xmlns="http://www.w3.org/2000/svg">
<circle cx="27.5" cy="27.5" r="27.5" fill="#FF7931"/>
<g clip-path="url(#clip0)">
<path d="M33.7999 24.4421C31.7236 24.4421 30.0346 22.7729 30.0346 20.721C30.0346 18.6692 31.7237 17 33.7999 17C35.876 17 37.5651 18.6692 37.5651 20.721C37.5651 22.7729 35.8761 24.4421 33.7999 24.4421ZM33.7999 19.374C33.0268 19.374 32.3979 19.9783 32.3979 20.721C32.3979 21.4638 33.0268 22.068 33.7999 22.068C34.5729 22.068 35.2018 21.4638 35.2018 20.721C35.2018 19.9783 34.5729 19.374 33.7999 19.374Z" fill="white"/>
<path d="M39.8183 35C39.8178 35 39.8173 35 39.8169 35H15.1816C14.7395 35 14.3343 34.752 14.1315 34.3573C13.9288 33.9626 13.9624 33.4871 14.2187 33.1251L22.5714 21.3265C22.7912 21.016 23.146 20.8304 23.5253 20.8274C23.9022 20.8245 24.2623 21.0047 24.4868 21.3118L30.3622 29.3492L33.7742 26.0232C34.0172 25.7861 34.3497 25.6653 34.6875 25.6914C35.0252 25.7175 35.3356 25.8878 35.5398 26.1593L40.7289 33.0565C40.8983 33.2619 41 33.5255 41 33.8131C41 34.4686 40.4709 35 39.8183 35ZM17.472 32.6261H37.4427L34.4605 28.6622L31.0352 32.0014C30.7901 32.2403 30.454 32.3611 30.1137 32.3324C29.7733 32.3038 29.4619 32.1286 29.2598 31.8521L23.5496 24.0409L17.472 32.6261Z" fill="white"/>
</g>
<defs>
<clipPath id="clip0">
<rect x="14" y="17" width="27" height="18" fill="white"/>
</clipPath>
</defs>
</svg>
